<?xml version="1.0" encoding="UTF-8"?>
<svg version="1.1" xmlns="http://www.w3.org/2000/svg" width="80" height="80">
<path d="M0 0 C3.42412441 0.47937742 6.80644118 0.95825202 10.1875 1.6875 C13.36684071 2.04076008 14.27723999 1.49312645 17 0 C19.5 -0.4375 19.5 -0.4375 22 0 C26 4.10810811 26 4.10810811 26 7 C31.445 7.495 31.445 7.495 37 8 C37.28875 9.0725 37.5775 10.145 37.875 11.25 C39.45306102 17.17840357 39.45306102 17.17840357 44.125 20.75 C45.07375 21.1625 46.0225 21.575 47 22 C46.89300781 22.80824219 46.78601563 23.61648437 46.67578125 24.44921875 C46.55589844 25.51785156 46.43601562 26.58648438 46.3125 27.6875 C46.18488281 28.74324219 46.05726562 29.79898437 45.92578125 30.88671875 C46.01198564 34.50276618 46.98475065 36.06088318 49 39 C49.5 41.5 49.5 41.5 49 44 C48.195625 44.70125 47.39125 45.4025 46.5625 46.125 C42.81407032 50.33055525 43.10530304 54.5338151 43 60 C41.70990357 60.50403768 40.41786211 61.00309926 39.125 61.5 C38.40570313 61.7784375 37.68640625 62.056875 36.9453125 62.34375 C35 63 35 63 33 63 C32.814375 64.11375 32.814375 64.11375 32.625 65.25 C32.0421624 67.81448542 31.21335551 69.69166512 30 72 C29.19175781 71.95359375 28.38351563 71.9071875 27.55078125 71.859375 C20.90845685 71.42718214 20.90845685 71.42718214 15.0625 74.0625 C14.381875 74.701875 13.70125 75.34125 13 76 C9.95054741 75.92562311 8.5320973 75.46720739 6.23828125 73.453125 C3.27053416 71.52642008 1.25381813 71.69824506 -2.25 71.8125 C-3.32765625 71.83957031 -4.4053125 71.86664063 -5.515625 71.89453125 C-6.74539062 71.94673828 -6.74539062 71.94673828 -8 72 C-11 66.375 -11 66.375 -11 63 C-11.63808594 62.86722656 -12.27617187 62.73445313 -12.93359375 62.59765625 C-13.75988281 62.42105469 -14.58617187 62.24445313 -15.4375 62.0625 C-16.26121094 61.88847656 -17.08492187 61.71445312 -17.93359375 61.53515625 C-20 61 -20 61 -21 60 C-21.10563195 58.25120432 -21.18446365 56.50075682 -21.25 54.75 C-21.65706334 49.40988099 -22.92322941 47.55410769 -27 44 C-27.5 41.5 -27.5 41.5 -27 39 C-26.23236328 37.88044922 -26.23236328 37.88044922 -25.44921875 36.73828125 C-23.65640659 33.35078442 -23.85705077 31.45530729 -24.3125 27.6875 C-24.43238281 26.61886719 -24.55226563 25.55023437 -24.67578125 24.44921875 C-24.78277344 23.64097656 -24.88976562 22.83273438 -25 22 C-23.88625 21.525625 -22.7725 21.05125 -21.625 20.5625 C-19.12982709 19.17405701 -18.17859967 18.45606701 -17.125 15.765625 C-16.7980322 14.16143924 -16.51724936 12.54696929 -16.2890625 10.92578125 C-16 9 -16 9 -15 8 C-12.18980604 7.79701649 -9.38184134 7.68066936 -6.56640625 7.57421875 C-3.87976007 7.28513109 -3.87976007 7.28513109 -2.77734375 5.14453125 C-2.52082031 4.43683594 -2.26429687 3.72914062 -2 3 C-1.34 2.01 -0.68 1.02 0 0 Z " fill="#FDEBA1" transform="translate(29,2)"/>
<path d="M0 0 C3.42412441 0.47937742 6.80644118 0.95825202 10.1875 1.6875 C13.36684071 2.04076008 14.27723999 1.49312645 17 0 C19.5 -0.4375 19.5 -0.4375 22 0 C26 4.10810811 26 4.10810811 26 7 C31.445 7.495 31.445 7.495 37 8 C37.28875 9.0725 37.5775 10.145 37.875 11.25 C39.45306102 17.17840357 39.45306102 17.17840357 44.125 20.75 C45.07375 21.1625 46.0225 21.575 47 22 C46.89300781 22.80824219 46.78601563 23.61648437 46.67578125 24.44921875 C46.55589844 25.51785156 46.43601562 26.58648438 46.3125 27.6875 C46.18488281 28.74324219 46.05726562 29.79898437 45.92578125 30.88671875 C46.01198564 34.50276618 46.98475065 36.06088318 49 39 C49.5 41.5 49.5 41.5 49 44 C48.195625 44.70125 47.39125 45.4025 46.5625 46.125 C42.81407032 50.33055525 43.10530304 54.5338151 43 60 C41.70990357 60.50403768 40.41786211 61.00309926 39.125 61.5 C38.40570313 61.7784375 37.68640625 62.056875 36.9453125 62.34375 C35 63 35 63 33 63 C32.814375 64.11375 32.814375 64.11375 32.625 65.25 C32.0421624 67.81448542 31.21335551 69.69166512 30 72 C29.19175781 71.95359375 28.38351563 71.9071875 27.55078125 71.859375 C20.90845685 71.42718214 20.90845685 71.42718214 15.0625 74.0625 C14.381875 74.701875 13.70125 75.34125 13 76 C9.95054741 75.92562311 8.5320973 75.46720739 6.23828125 73.453125 C3.27053416 71.52642008 1.25381813 71.69824506 -2.25 71.8125 C-3.32765625 71.83957031 -4.4053125 71.86664063 -5.515625 71.89453125 C-6.74539062 71.94673828 -6.74539062 71.94673828 -8 72 C-11 66.375 -11 66.375 -11 63 C-11.63808594 62.86722656 -12.27617187 62.73445313 -12.93359375 62.59765625 C-13.75988281 62.42105469 -14.58617187 62.24445313 -15.4375 62.0625 C-16.26121094 61.88847656 -17.08492187 61.71445312 -17.93359375 61.53515625 C-20 61 -20 61 -21 60 C-21.10563195 58.25120432 -21.18446365 56.50075682 -21.25 54.75 C-21.65706334 49.40988099 -22.92322941 47.55410769 -27 44 C-27.5 41.5 -27.5 41.5 -27 39 C-26.23236328 37.88044922 -26.23236328 37.88044922 -25.44921875 36.73828125 C-23.65640659 33.35078442 -23.85705077 31.45530729 -24.3125 27.6875 C-24.43238281 26.61886719 -24.55226563 25.55023437 -24.67578125 24.44921875 C-24.78277344 23.64097656 -24.88976562 22.83273438 -25 22 C-23.88625 21.525625 -22.7725 21.05125 -21.625 20.5625 C-19.12982709 19.17405701 -18.17859967 18.45606701 -17.125 15.765625 C-16.7980322 14.16143924 -16.51724936 12.54696929 -16.2890625 10.92578125 C-16 9 -16 9 -15 8 C-12.18980604 7.79701649 -9.38184134 7.68066936 -6.56640625 7.57421875 C-3.87976007 7.28513109 -3.87976007 7.28513109 -2.77734375 5.14453125 C-2.52082031 4.43683594 -2.26429687 3.72914062 -2 3 C-1.34 2.01 -0.68 1.02 0 0 Z M2 1 C1.68289062 1.49371094 1.36578125 1.98742187 1.0390625 2.49609375 C-1.23177904 5.61379609 -2.79562201 7.68456767 -6.625 8.6875 C-9.09897803 8.91240709 -11.51675613 9.03435318 -14 9 C-14.0515625 9.66386719 -14.103125 10.32773438 -14.15625 11.01171875 C-15.07174994 18.13805352 -15.07174994 18.13805352 -17.9140625 20.77734375 C-19.90367601 21.99009404 -21.86963635 23.05867653 -24 24 C-23.80921875 24.64066406 -23.6184375 25.28132813 -23.421875 25.94140625 C-21.60849492 33.01569714 -21.60849492 33.01569714 -22.828125 36.08203125 C-23.21484375 36.67371094 -23.6015625 37.26539063 -24 37.875 C-24.66 38.90625 -25.32 39.9375 -26 41 C-25.33004093 43.93107094 -24.25021701 44.80865758 -21.875 46.625 C-18.9156976 50.3734497 -19.68359161 54.39450006 -20 59 C-19.09507813 59.185625 -19.09507813 59.185625 -18.171875 59.375 C-11.72176178 61.03954535 -11.72176178 61.03954535 -9.51171875 63.98046875 C-8.54708737 65.96234777 -7.70861752 67.91379039 -7 70 C-6.27554687 69.94199219 -5.55109375 69.88398437 -4.8046875 69.82421875 C4.07504897 69.40983105 4.07504897 69.40983105 7.6875 72.5 C8.450625 73.325 9.21375 74.15 10 75 C12.19174402 73.98240456 13.95574129 73.03882343 15.78125 71.4375 C18.61787153 69.59968887 20.40310567 69.69296806 23.75 69.8125 C24.73484375 69.83957031 25.7196875 69.86664063 26.734375 69.89453125 C27.48203125 69.92933594 28.2296875 69.96414062 29 70 C29.18433594 69.45730469 29.36867187 68.91460937 29.55859375 68.35546875 C30.95028817 64.92262251 31.90249466 62.57992107 35.26953125 60.80078125 C37.50309193 60.07971048 39.70151677 59.47148374 42 59 C41.89558594 58.02160156 41.89558594 58.02160156 41.7890625 57.0234375 C41.35211935 49.96992659 41.35211935 49.96992659 43.3359375 47 C45 45.375 45 45.375 48 43 C46.61481238 38.7142397 46.61481238 38.7142397 44.75 34.625 C43.61798383 30.66294341 44.80809214 27.90680911 46 24 C45.44570312 23.75507813 44.89140625 23.51015625 44.3203125 23.2578125 C38.47359697 20.24082406 38.47359697 20.24082406 37.0234375 16.44140625 C36.55090964 13.95534552 36.1958983 11.52219065 36 9 C35.02160156 9.01353516 35.02160156 9.01353516 34.0234375 9.02734375 C26.96992659 8.78806536 26.96992659 8.78806536 24 6.375 C22.54457134 4.63968121 21.2234738 2.90483929 20 1 C18.96875 1.515625 17.9375 2.03125 16.875 2.5625 C12.15003571 4.58204119 8.86068245 3.68764351 4.125 1.9375 C3.42375 1.628125 2.7225 1.31875 2 1 Z " fill="#C0A34F" transform="translate(29,2)"/>
<path d="M0 0 C0.66 0 1.32 0 2 0 C2.99 2.64 3.98 5.28 5 8 C5.99 5.36 6.98 2.72 8 0 C8.99 0 9.98 0 11 0 C11.99 2.64 12.98 5.28 14 8 C14.66 5.36 15.32 2.72 16 0 C16.99 0 17.98 0 19 0 C18.343621 4.48525648 17.29925791 8.66914029 16 13 C14.68 13.33 13.36 13.66 12 14 C11.34 11.69 10.68 9.38 10 7 C9.566875 7.8971875 9.566875 7.8971875 9.125 8.8125 C8 11 8 11 6 14 C5.01 14 4.02 14 3 14 C2.49307308 12.4188708 1.99473557 10.83498617 1.5 9.25 C1.2215625 8.36828125 0.943125 7.4865625 0.65625 6.578125 C0 4 0 4 0 0 Z " fill="#CE594F" transform="translate(45,33)"/>
<path d="M0 0 C2.64 0 5.28 0 8 0 C8 0.99 8 1.98 8 3 C6.35 3 4.7 3 3 3 C3 4.32 3 5.64 3 7 C4.65 7 6.3 7 8 7 C8 7.66 8 8.32 8 9 C6.35 9 4.7 9 3 9 C3 10.32 3 11.64 3 13 C4.98 13 6.96 13 9 13 C9 13.99 9 14.98 9 16 C6.03 16 3.06 16 0 16 C0 10.72 0 5.44 0 0 Z " fill="#D26656" transform="translate(33,32)"/>
<path d="M0 0 C4 1 4 1 5.484375 2.84765625 C5.90203125 3.57855469 6.3196875 4.30945312 6.75 5.0625 C7.39195313 6.16271484 7.39195313 6.16271484 8.046875 7.28515625 C8.36140625 7.85105469 8.6759375 8.41695312 9 9 C9.33 6.03 9.66 3.06 10 0 C10.66 0 11.32 0 12 0 C12 4.62 12 9.24 12 14 C8 13 8 13 6.515625 11.15234375 C6.09796875 10.42144531 5.6803125 9.69054687 5.25 8.9375 C4.82203125 8.20402344 4.3940625 7.47054687 3.953125 6.71484375 C3.63859375 6.14894531 3.3240625 5.58304688 3 5 C2.67 7.97 2.34 10.94 2 14 C1.34 14 0.68 14 0 14 C0 9.38 0 4.76 0 0 Z " fill="#C74544" transform="translate(16,33)"/>
<path d="M0 0 C2.79828356 0.38597015 3.8205884 0.80136573 5.75 2.9375 C7 5 7 5 7 7 C8.17369141 7.07347656 8.17369141 7.07347656 9.37109375 7.1484375 C10.38300781 7.22320313 11.39492188 7.29796875 12.4375 7.375 C13.95150391 7.47941406 13.95150391 7.47941406 15.49609375 7.5859375 C16.32238281 7.72257813 17.14867188 7.85921875 18 8 C18.33 8.66 18.66 9.32 19 10 C8.65285192 10.27184625 8.65285192 10.27184625 4.64453125 7.1875 C0 1.82474227 0 1.82474227 0 0 Z " fill="#C5AC45" transform="translate(48,2)"/>
<path d="M0 0 C1.75 0.0625 1.75 0.0625 4 1 C5.59501537 3.24164322 6.74543018 5.53566643 8 8 C7.01 8 6.02 8 5 8 C3.95107762 6.36368108 2.95093297 4.69514137 2 3 C1.34 2.67 0.68 2.34 0 2 C0 1.34 0 0.68 0 0 Z " fill="#CC544D" transform="translate(17,35)"/>
<path d="M0 0 C0.66 0 1.32 0 2 0 C0.83242263 3.32310483 -0.14948857 5.83361132 -3 8 C-3.99 8 -4.98 8 -6 8 C-6 7.34 -6 6.68 -6 6 C-5.01 6 -4.02 6 -3 6 C-2.690625 5.38125 -2.38125 4.7625 -2.0625 4.125 C-1.375 2.75 -0.6875 1.375 0 0 Z " fill="#C8AE43" transform="translate(28,3)"/>
<path d="M0 0 C0.99 0 1.98 0 3 0 C2.67 1.98 2.34 3.96 2 6 C1.01 6 0.02 6 -1 6 C-0.67 4.02 -0.34 2.04 0 0 Z " fill="#D26656" transform="translate(61,33)"/>
</svg>
